<svg xmlns="http://www.w3.org/2000/svg" xmlns:xlink="http://www.w3.org/1999/xlink" width="23" height="23" viewBox="0 0 23 23">
    <defs>
        <path id="a" d="M0 0h24v22.6H0z"/>
    </defs>
    <g fill="none" fill-rule="evenodd" transform="translate(-1)">
        <mask id="b" fill="#fff">
            <use xlink:href="#a"/>
        </mask>
        <path fill="#FFF" d="M6.505 4.21c-.57 1.277-.344 3.563-.253 5.162-.615.34-1.405-.257-1.852-.257-.466 0-1.021.305-1.108.761-.063.329.084.807 1.14 1.224.408.161 1.38.351 1.604.88.317.745-1.623 4.181-4.669 4.683a.472.472 0 0 0-.395.492c.053.925 2.129 1.289 3.049 1.431.094.126.17.665.29 1.073.054.184.194.403.553.403.468 0 1.245-.361 2.6-.136 1.327.221 2.574 2.103 4.97 2.103 2.226 0 3.554-1.891 4.832-2.103.74-.123 1.375-.084 2.085.054.49.097.928.15 1.067-.33.123-.415.198-.942.29-1.067.911-.141 2.996-.504 3.049-1.429a.473.473 0 0 0-.395-.492c-2.995-.494-4.993-3.92-4.67-4.682.224-.529 1.189-.717 1.605-.881.773-.305 1.16-.68 1.151-1.114-.01-.555-.68-.887-1.17-.887-.5 0-1.22.593-1.801.272.09-1.612.314-3.888-.254-5.163C17.146 1.793 14.748.572 12.352.572c-2.381 0-4.76 1.204-5.847 3.639" mask="url(#b)"/>
    </g>
</svg>
