<svg height="24" viewBox="0 0 24 24" width="24" xmlns="http://www.w3.org/2000/svg" xmlns:xlink="http://www.w3.org/1999/xlink"><mask id="a" fill="#fff"><path d="m6.9104.1336c1.2248-.056 1.616-.0688 4.736-.0688 3.1208 0 3.512.0128 4.7376.0688 1.2224.056 2.0576.2504 2.788.5336.756.2936 1.3968.6872 2.0352 1.3256.6392.6384 1.032 1.2792 1.3256 2.0352.2832.7304.4776 1.5656.5344 2.7888.056 1.2256.068 1.6168.068 4.7368 0 3.1208-.012 3.5112-.068 4.7368-.0568 1.2232-.2512 2.0584-.5344 2.7888-.2936.756-.6864 1.3968-1.3256 2.0352-.6384.6392-1.2792 1.032-2.0352 1.3256-.7304.284-1.5656.4784-2.788.5336-1.2256.056-1.6168.0688-4.7376.0688-3.12 0-3.5112-.0128-4.736-.0688-1.2232-.0552-2.0592-.2496-2.7896-.5336-.7552-.2936-1.396-.6864-2.0344-1.3256-.64-.6384-1.0328-1.2792-1.3256-2.0352-.284-.7304-.4792-1.5656-.5344-2.7888-.0552-1.2256-.0688-1.616-.0688-4.7368 0-3.12.0136-3.5112.0688-4.7368.0552-1.2232.2504-2.0584.5344-2.7888.2928-.756.6856-1.3968 1.3256-2.0352.6384-.6384 1.2792-1.032 2.0344-1.3256.7304-.2832 1.5664-.4776 2.7896-.5336zm.0936 20.772c1.2112.056 1.5752.0672 4.6424.0672 3.068 0 3.4312-.0112 4.6432-.0672 1.1192-.0512 1.728-.2376 2.1336-.396.536-.208.9184-.4568 1.3208-.8584.4016-.4024.6504-.7848.8592-1.3216.1576-.4048.3448-1.0128.396-2.1336.0544-1.2112.0664-1.5744.0664-4.6424s-.012-3.4304-.0664-4.6424c-.0512-1.12-.2384-1.7288-.396-2.1336-.2088-.536-.4576-.9192-.8592-1.3208-.4024-.4016-.7848-.6512-1.3208-.86-.4056-.1568-1.0144-.344-2.1336-.3952-1.2128-.0552-1.5752-.0672-4.6432-.0672-3.0672 0-3.4312.012-4.6424.0672-1.1208.0512-1.728.2384-2.1328.3952-.5376.2088-.9192.4584-1.3216.86s-.6512.7848-.8592 1.3208c-.1568.4048-.3448 1.0136-.3952 2.1336-.056 1.212-.068 1.5744-.068 4.6424s.012 3.4312.068 4.6424c.0504 1.1208.2384 1.7288.3952 2.1336.208.5368.4568.9192.8592 1.3216.4024.4016.784.6504 1.3216.8584.4048.1584 1.012.3448 2.1328.396zm9.3968-15.4848c0-.7616.6176-1.3792 1.3792-1.3792.7608 0 1.3784.6176 1.3784 1.3792 0 .7608-.6176 1.3784-1.3784 1.3784-.7616 0-1.3792-.6176-1.3792-1.3784zm-10.6544 6.1328c0-3.2584 2.6416-5.9 5.9-5.9s5.8992 2.6416 5.8992 5.9c0 3.2592-2.6408 5.9-5.8992 5.9s-5.9-2.6408-5.9-5.9zm2.0704 0c0 2.1152 1.7152 3.8296 3.8296 3.8296 2.1152 0 3.8296-1.7144 3.8296-3.8296s-1.7144-3.8296-3.8296-3.8296c-2.1144 0-3.8296 1.7144-3.8296 3.8296z" fill="none"/></mask><mask id="b" fill="#fff"><path d="m6.9104.1336c1.2248-.056 1.616-.0688 4.736-.0688 3.1208 0 3.512.0128 4.7376.0688 1.2224.056 2.0576.2504 2.788.5336.756.2936 1.3968.6872 2.0352 1.3256.6392.6384 1.032 1.2792 1.3256 2.0352.2832.7304.4776 1.5656.5344 2.7888.056 1.2256.068 1.6168.068 4.7368 0 3.1208-.012 3.5112-.068 4.7368-.0568 1.2232-.2512 2.0584-.5344 2.7888-.2936.756-.6864 1.3968-1.3256 2.0352-.6384.6392-1.2792 1.032-2.0352 1.3256-.7304.284-1.5656.4784-2.788.5336-1.2256.056-1.6168.0688-4.7376.0688-3.12 0-3.5112-.0128-4.736-.0688-1.2232-.0552-2.0592-.2496-2.7896-.5336-.7552-.2936-1.396-.6864-2.0344-1.3256-.64-.6384-1.0328-1.2792-1.3256-2.0352-.284-.7304-.4792-1.5656-.5344-2.7888-.0552-1.2256-.0688-1.616-.0688-4.7368 0-3.12.0136-3.5112.0688-4.7368.0552-1.2232.2504-2.0584.5344-2.7888.2928-.756.6856-1.3968 1.3256-2.0352.6384-.6384 1.2792-1.032 2.0344-1.3256.7304-.2832 1.5664-.4776 2.7896-.5336zm.0936 20.772c1.2112.056 1.5752.0672 4.6424.0672 3.068 0 3.4312-.0112 4.6432-.0672 1.1192-.0512 1.728-.2376 2.1336-.396.536-.208.9184-.4568 1.3208-.8584.4016-.4024.6504-.7848.8592-1.3216.1576-.4048.3448-1.0128.396-2.1336.0544-1.2112.0664-1.5744.0664-4.6424s-.012-3.4304-.0664-4.6424c-.0512-1.12-.2384-1.7288-.396-2.1336-.2088-.536-.4576-.9192-.8592-1.3208-.4024-.4016-.7848-.6512-1.3208-.86-.4056-.1568-1.0144-.344-2.1336-.3952-1.2128-.0552-1.5752-.0672-4.6432-.0672-3.0672 0-3.4312.012-4.6424.0672-1.1208.0512-1.728.2384-2.1328.3952-.5376.2088-.9192.4584-1.3216.86s-.6512.7848-.8592 1.3208c-.1568.4048-.3448 1.0136-.3952 2.1336-.056 1.212-.068 1.5744-.068 4.6424s.012 3.4312.068 4.6424c.0504 1.1208.2384 1.7288.3952 2.1336.208.5368.4568.9192.8592 1.3216.4024.4016.784.6504 1.3216.8584.4048.1584 1.012.3448 2.1328.396zm9.3968-15.4848c0-.7616.6176-1.3792 1.3792-1.3792.7608 0 1.3784.6176 1.3784 1.3792 0 .7608-.6176 1.3784-1.3784 1.3784-.7616 0-1.3792-.6176-1.3792-1.3784zm-10.6544 6.1328c0-3.2584 2.6416-5.9 5.9-5.9s5.8992 2.6416 5.8992 5.9c0 3.2592-2.6408 5.9-5.8992 5.9s-5.9-2.6408-5.9-5.9zm2.0704 0c0 2.1152 1.7152 3.8296 3.8296 3.8296 2.1152 0 3.8296-1.7144 3.8296-3.8296s-1.7144-3.8296-3.8296-3.8296c-2.1144 0-3.8296 1.7144-3.8296 3.8296z" fill="none"/></mask><mask id="c" fill="#fff"><path d="m.59430117.504h2.21211906c-.04040412.08697448-.07886318.17784915-.11602023.2736-.1568.4048-.3448 1.0136-.3952 2.1336-.056 1.212-.068 1.5744-.068 4.6424s.012 3.4312.068 4.6424c.0504 1.1208.2384 1.7288.3952 2.1336.208.5368.4568.9192.8592 1.3216.4024.4016.784.6504 1.3216.8584.4048.1584 1.012.3448 2.1328.396 1.2112.056 1.5752.0672 4.6424.0672 3.068 0 3.4312-.0112 4.6432-.0672 1.1192-.0512 1.728-.2376 2.1336-.396.536-.208.9184-.4568 1.3208-.8584.4016-.4024.6504-.7848.8592-1.3216.1576-.4048.3448-1.0128.396-2.1336.0544-1.2112.0664-1.5744.0664-4.6424s-.012-3.4304-.0664-4.6424c-.0512-1.12-.2384-1.7288-.396-2.1336-.0373-.09575085-.0758764-.18662552-.1163724-.2736h2.21199c.1926725.62179796.323495 1.34614049.3683824 2.3128.056 1.2256.068 1.6168.068 4.7368 0 3.1208-.012 3.5112-.068 4.7368-.0568 1.2232-.2512 2.0584-.5344 2.7888-.2936.756-.6864 1.3968-1.3256 2.0352-.6384.6392-1.2792 1.032-2.0352 1.3256-.7304.284-1.5656.4784-2.788.5336-1.2256.056-1.6168.0688-4.7376.0688-3.12 0-3.5112-.0128-4.736-.0688-1.2232-.0552-2.0592-.2496-2.7896-.5336-.7552-.2936-1.396-.6864-2.0344-1.3256-.64-.6384-1.0328-1.2792-1.3256-2.0352-.284-.7304-.4792-1.5656-.5344-2.7888-.0552-1.2256-.0688-1.616-.0688-4.7368 0-3.12.0136-3.5112.0688-4.7368.04362296-.96665951.17467988-1.69100204.36790117-2.3128zm18.21529303 0c.216935.24370118.3488058.56487705.3488058.9168 0 .7608-.6176 1.3784-1.3784 1.3784-.7616 0-1.3792-.6176-1.3792-1.3784 0-.35192295.1318708-.67309882.3488847-.9168zm-13.0631942 7.0496c0-3.2584 2.6416-5.9 5.9-5.9s5.8992 2.6416 5.8992 5.9c0 3.2592-2.6408 5.9-5.8992 5.9s-5.9-2.6408-5.9-5.9zm2.0704 0c0 2.1152 1.7152 3.8296 3.8296 3.8296 2.1152 0 3.8296-1.7144 3.8296-3.8296s-1.7144-3.8296-3.8296-3.8296c-2.1144 0-3.8296 1.7144-3.8296 3.8296z" fill="none"/></mask><mask id="d" fill="#fff"><path d="m6.9104.1336c1.2248-.056 1.616-.0688 4.736-.0688 3.1208 0 3.512.0128 4.7376.0688 1.2224.056 2.0576.2504 2.788.5336.756.2936 1.3968.6872 2.0352 1.3256.6392.6384 1.032 1.2792 1.3256 2.0352.2832.7304.4776 1.5656.5344 2.7888.056 1.2256.068 1.6168.068 4.7368 0 3.1208-.012 3.5112-.068 4.7368-.0568 1.2232-.2512 2.0584-.5344 2.7888-.2936.756-.6864 1.3968-1.3256 2.0352-.6384.6392-1.2792 1.032-2.0352 1.3256-.7304.284-1.5656.4784-2.788.5336-1.2256.056-1.6168.0688-4.7376.0688-3.12 0-3.5112-.0128-4.736-.0688-1.2232-.0552-2.0592-.2496-2.7896-.5336-.7552-.2936-1.396-.6864-2.0344-1.3256-.64-.6384-1.0328-1.2792-1.3256-2.0352-.284-.7304-.4792-1.5656-.5344-2.7888-.0552-1.2256-.0688-1.616-.0688-4.7368 0-3.12.0136-3.5112.0688-4.7368.0552-1.2232.2504-2.0584.5344-2.7888.2928-.756.6856-1.3968 1.3256-2.0352.6384-.6384 1.2792-1.032 2.0344-1.3256.7304-.2832 1.5664-.4776 2.7896-.5336zm.0936 20.772c1.2112.056 1.5752.0672 4.6424.0672 3.068 0 3.4312-.0112 4.6432-.0672 1.1192-.0512 1.728-.2376 2.1336-.396.536-.208.9184-.4568 1.3208-.8584.4016-.4024.6504-.7848.8592-1.3216.1576-.4048.3448-1.0128.396-2.1336.0544-1.2112.0664-1.5744.0664-4.6424s-.012-3.4304-.0664-4.6424c-.0512-1.12-.2384-1.7288-.396-2.1336-.2088-.536-.4576-.9192-.8592-1.3208-.4024-.4016-.7848-.6512-1.3208-.86-.4056-.1568-1.0144-.344-2.1336-.3952-1.2128-.0552-1.5752-.0672-4.6432-.0672-3.0672 0-3.4312.012-4.6424.0672-1.1208.0512-1.728.2384-2.1328.3952-.5376.2088-.9192.4584-1.3216.86s-.6512.7848-.8592 1.3208c-.1568.4048-.3448 1.0136-.3952 2.1336-.056 1.212-.068 1.5744-.068 4.6424s.012 3.4312.068 4.6424c.0504 1.1208.2384 1.7288.3952 2.1336.208.5368.4568.9192.8592 1.3216.4024.4016.784.6504 1.3216.8584.4048.1584 1.012.3448 2.1328.396zm9.3968-15.4848c0-.7616.6176-1.3792 1.3792-1.3792.7608 0 1.3784.6176 1.3784 1.3792 0 .7608-.6176 1.3784-1.3784 1.3784-.7616 0-1.3792-.6176-1.3792-1.3784zm-10.6544 6.1328c0-3.2584 2.6416-5.9 5.9-5.9s5.8992 2.6416 5.8992 5.9c0 3.2592-2.6408 5.9-5.8992 5.9s-5.9-2.6408-5.9-5.9zm2.0704 0c0 2.1152 1.7152 3.8296 3.8296 3.8296 2.1152 0 3.8296-1.7144 3.8296-3.8296s-1.7144-3.8296-3.8296-3.8296c-2.1144 0-3.8296 1.7144-3.8296 3.8296z" fill="none"/></mask><mask id="e" fill="#fff"><path d="m6.9104.1336c1.2248-.056 1.616-.0688 4.736-.0688 3.1208 0 3.512.0128 4.7376.0688 1.2224.056 2.0576.2504 2.788.5336.756.2936 1.3968.6872 2.0352 1.3256.6392.6384 1.032 1.2792 1.3256 2.0352.2832.7304.4776 1.5656.5344 2.7888.056 1.2256.068 1.6168.068 4.7368 0 3.1208-.012 3.5112-.068 4.7368-.0568 1.2232-.2512 2.0584-.5344 2.7888-.2936.756-.6864 1.3968-1.3256 2.0352-.6384.6392-1.2792 1.032-2.0352 1.3256-.7304.284-1.5656.4784-2.788.5336-1.2256.056-1.6168.0688-4.7376.0688-3.12 0-3.5112-.0128-4.736-.0688-1.2232-.0552-2.0592-.2496-2.7896-.5336-.7552-.2936-1.396-.6864-2.0344-1.3256-.64-.6384-1.0328-1.2792-1.3256-2.0352-.284-.7304-.4792-1.5656-.5344-2.7888-.0552-1.2256-.0688-1.616-.0688-4.7368 0-3.12.0136-3.5112.0688-4.7368.0552-1.2232.2504-2.0584.5344-2.7888.2928-.756.6856-1.3968 1.3256-2.0352.6384-.6384 1.2792-1.032 2.0344-1.3256.7304-.2832 1.5664-.4776 2.7896-.5336zm.0936 20.772c1.2112.056 1.5752.0672 4.6424.0672 3.068 0 3.4312-.0112 4.6432-.0672 1.1192-.0512 1.728-.2376 2.1336-.396.536-.208.9184-.4568 1.3208-.8584.4016-.4024.6504-.7848.8592-1.3216.1576-.4048.3448-1.0128.396-2.1336.0544-1.2112.0664-1.5744.0664-4.6424s-.012-3.4304-.0664-4.6424c-.0512-1.12-.2384-1.7288-.396-2.1336-.2088-.536-.4576-.9192-.8592-1.3208-.4024-.4016-.7848-.6512-1.3208-.86-.4056-.1568-1.0144-.344-2.1336-.3952-1.2128-.0552-1.5752-.0672-4.6432-.0672-3.0672 0-3.4312.012-4.6424.0672-1.1208.0512-1.728.2384-2.1328.3952-.5376.2088-.9192.4584-1.3216.86s-.6512.7848-.8592 1.3208c-.1568.4048-.3448 1.0136-.3952 2.1336-.056 1.212-.068 1.5744-.068 4.6424s.012 3.4312.068 4.6424c.0504 1.1208.2384 1.7288.3952 2.1336.208.5368.4568.9192.8592 1.3216.4024.4016.784.6504 1.3216.8584.4048.1584 1.012.3448 2.1328.396zm9.3968-15.4848c0-.7616.6176-1.3792 1.3792-1.3792.7608 0 1.3784.6176 1.3784 1.3792 0 .7608-.6176 1.3784-1.3784 1.3784-.7616 0-1.3792-.6176-1.3792-1.3784zm-10.6544 6.1328c0-3.2584 2.6416-5.9 5.9-5.9s5.8992 2.6416 5.8992 5.9c0 3.2592-2.6408 5.9-5.8992 5.9s-5.9-2.6408-5.9-5.9zm2.0704 0c0 2.1152 1.7152 3.8296 3.8296 3.8296 2.1152 0 3.8296-1.7144 3.8296-3.8296s-1.7144-3.8296-3.8296-3.8296c-2.1144 0-3.8296 1.7144-3.8296 3.8296z" fill="none"/></mask><g fill="none" fill-rule="evenodd"><g fill="#f198d6"><path d="m-33.2008 66.9112h74.68v-74.68h-74.68z" mask="url(#a)" transform="translate(.078507 .197542)"/><path d="m-22.756 64.8216h60.3184v-60.3184h-60.3184z" mask="url(#b)" transform="translate(.078507 .197542)"/><path d="m-22.756 60.8216h60.3184v-60.3184h-60.3184z" mask="url(#c)" transform="translate(.078507 4.197542)"/><path d="m-26.6728 66.1272h59.5344v-57.7072h-59.5344z" mask="url(#d)" transform="translate(.078507 .197542)"/><path d="m-55.2 78.4h133.7576v-133.6928h-133.7576z" mask="url(#e)" transform="translate(.078507 .197542)"/></g><path d="m6.9104.1336c1.2248-.056 1.616-.0688 4.736-.0688 3.1208 0 3.512.0128 4.7376.0688 1.2224.056 2.0576.2504 2.788.5336.756.2936 1.3968.6872 2.0352 1.3256.6392.6384 1.032 1.2792 1.3256 2.0352.2832.7304.4776 1.5656.5344 2.7888.056 1.2256.068 1.6168.068 4.7368 0 3.1208-.012 3.5112-.068 4.7368-.0568 1.2232-.2512 2.0584-.5344 2.7888-.2936.756-.6864 1.3968-1.3256 2.0352-.6384.6392-1.2792 1.032-2.0352 1.3256-.7304.284-1.5656.4784-2.788.5336-1.2256.056-1.6168.0688-4.7376.0688-3.12 0-3.5112-.0128-4.736-.0688-1.2232-.0552-2.0592-.2496-2.7896-.5336-.7552-.2936-1.396-.6864-2.0344-1.3256-.64-.6384-1.0328-1.2792-1.3256-2.0352-.284-.7304-.4792-1.5656-.5344-2.7888-.0552-1.2256-.0688-1.616-.0688-4.7368 0-3.12.0136-3.5112.0688-4.7368.0552-1.2232.2504-2.0584.5344-2.7888.2928-.756.6856-1.3968 1.3256-2.0352.6384-.6384 1.2792-1.032 2.0344-1.3256.7304-.2832 1.5664-.4776 2.7896-.5336zm.0936 20.772c1.2112.056 1.5752.0672 4.6424.0672 3.068 0 3.4312-.0112 4.6432-.0672 1.1192-.0512 1.728-.2376 2.1336-.396.536-.208.9184-.4568 1.3208-.8584.4016-.4024.6504-.7848.8592-1.3216.1576-.4048.3448-1.0128.396-2.1336.0544-1.2112.0664-1.5744.0664-4.6424s-.012-3.4304-.0664-4.6424c-.0512-1.12-.2384-1.7288-.396-2.1336-.2088-.536-.4576-.9192-.8592-1.3208-.4024-.4016-.7848-.6512-1.3208-.86-.4056-.1568-1.0144-.344-2.1336-.3952-1.2128-.0552-1.5752-.0672-4.6432-.0672-3.0672 0-3.4312.012-4.6424.0672-1.1208.0512-1.728.2384-2.1328.3952-.5376.2088-.9192.4584-1.3216.86s-.6512.7848-.8592 1.3208c-.1568.4048-.3448 1.0136-.3952 2.1336-.056 1.212-.068 1.5744-.068 4.6424s.012 3.4312.068 4.6424c.0504 1.1208.2384 1.7288.3952 2.1336.208.5368.4568.9192.8592 1.3216.4024.4016.784.6504 1.3216.8584.4048.1584 1.012.3448 2.1328.396zm9.3968-15.4848c0-.7616.6176-1.3792 1.3792-1.3792.7608 0 1.3784.6176 1.3784 1.3792 0 .7608-.6176 1.3784-1.3784 1.3784-.7616 0-1.3792-.6176-1.3792-1.3784zm-10.6544 6.1328c0-3.2584 2.6416-5.9 5.9-5.9s5.8992 2.6416 5.8992 5.9c0 3.2592-2.6408 5.9-5.8992 5.9s-5.9-2.6408-5.9-5.9zm2.0704 0c0 2.1152 1.7152 3.8296 3.8296 3.8296 2.1152 0 3.8296-1.7144 3.8296-3.8296s-1.7144-3.8296-3.8296-3.8296c-2.1144 0-3.8296 1.7144-3.8296 3.8296z" fill="#fff" transform="translate(.078507 .197542)"/></g></svg>