<svg height="21" viewBox="0 0 120 21" width="120" xmlns="http://www.w3.org/2000/svg"><g fill="none" fill-rule="evenodd" transform=""><g transform="translate(.253906 .634314)"><path d="m54.6153846 13.5714286c0-3.80952384-1.8002956-4.9564079-6.5258887-6.11987838-2.4161801-.58173523-3.0865862-.91442088-3.0865862-1.63470474 0-.6922362.3754864-1.19118019 1.9329441-1.19118019 1.9055973 0 3.569986.66503337 5.2351934 1.82850384 0 0 2.2112372-3.59702627 2.4443374-4.21069528-1.908209-1.44022978-4.2166395-2.24347385-7.4111391-2.24347385-4.537768 0-7.4101649 2.46548957-7.4101649 6.12148348 0 3.8781786 2.1749715 5.15248792 6.711757 6.23299822 2.5232748.6097829 3.1944996 1.0524626 3.1944996 1.7720706 0 .9147588-.5904944 1.2471066-2.4425444 1.2471066-1.745119 0-4.1341161-.9691645-5.5037488-1.9386669l-2.5232748 4.2098504c1.9599634 1.3293909 4.8860714 2.3551576 7.9191102 2.3551576 4.510585 0 7.4655052-1.6666667 7.4655052-6.2608769" fill="#949494"/><path d="m18.8461538 10c0-5.52305156 4.39069-10 9.8072025-10 5.416839 0 9.8081822 4.47694844 9.8081822 10 0 5.5227186-4.3913432 10-9.8081822 10-5.4165125 0-9.8072025-4.4772814-9.8072025-10m4.9963531 0c0-2.7092456 2.1540312-4.90567923 4.8108494-4.90567923 2.657308 0 4.8118291 2.19643363 4.8118291 4.90567923 0 2.7089126-2.1545211 4.9051797-4.8118291 4.9051797-2.6568182 0-4.8108494-2.1962671-4.8108494-4.9051797" fill="#e61e14"/><path d="m16.1538462 20v-20h-5.0769231v10.2857143s-6.55838312-10.2857143-6.60139862-10.2857143h-4.47552448v20h5.07692308v-10.28571429l6.67132862 10.28571429z" fill="#949494"/></g><path d="m65.818 17.5243137c.2760014.2520012.6389977.4619991 1.089.63.4500022.1680008.8849979.252 1.305.252.3840019 0 .7019987-.0479996.954-.144.2520013-.0960005.378-.2819987.378-.558 0-.1080006-.0269997-.2069996-.081-.297-.0540003-.0900005-.1529993-.1739997-.297-.252-.1440007-.0780004-.3449987-.1589996-.603-.243-.2580013-.0840005-.584998-.1799995-.981-.288-.3240016-.0840005-.6449984-.1949994-.963-.333-.3180016-.1380007-.5999988-.308999-.846-.513-.2460012-.2040011-.4439993-.4499986-.594-.738-.1500008-.2880015-.225-.6239981-.225-1.008 0-.396002.0899991-.7529985.27-1.071.1800009-.3180016.4289984-.5939989.747-.828.3180016-.2340012.6959978-.4139994 1.134-.54.4380022-.1260007.9089975-.189 1.413-.189.7200036 0 1.3499973.0809991 1.89.243.5400027.1620008 1.0379977.3989984 1.494.711l-1.098 1.71c-.2760014-.1800009-.5909982-.3419993-.945-.486-.3540018-.1440008-.7529978-.216-1.197-.216-.396002 0-.6839991.0569994-.864.171-.1800009.1140005-.27.266999-.27.459 0 .2760013.1859981.4799993.558.612.3720019.1320006.8759968.2819991 1.512.45.8640043.2400012 1.490998.5699979 1.881.99.3900019.4200021.585.9779965.585 1.674 0 .4680023-.104999.8699983-.315 1.206-.2100011.3360016-.4919982.6149988-.846.837-.3540018.2220011-.7559978.3869994-1.206.495-.4500023.1080005-.9089977.162-1.377.162-.7560038 0-1.4699966-.101999-2.142-.306-.6720034-.2040011-1.2179979-.5159979-1.638-.936zm8.442-3.798h-1.332v-2.034h1.332v-2.55600005h2.592v2.55600005h2.178v2.034h-2.178v3.33c0 .408002.0809992.7229988.243.945.1620008.2220011.4169983.333.765.333.2640013 0 .491999-.0449996.684-.135.192001-.0900005.3719992-.1949994.54-.315l1.044 1.584c-.8160041.6480032-1.7039952.972-2.664.972-.600003 0-1.103998-.0869992-1.512-.261-.408002-.1740009-.7379987-.4139985-.99-.72-.2520013-.3060016-.4319995-.6749979-.54-1.107-.1080005-.4320022-.162-.9119974-.162-1.44zm11.052 4.446c.3240016 0 .6119987-.0629994.864-.189.2520013-.1260007.4649991-.296999.639-.513.1740009-.2160011.3029996-.4589987.387-.729.0840004-.2700014.126-.5489986.126-.837 0-.2880015-.0419996-.5669987-.126-.837-.0840004-.2700014-.2129991-.509999-.387-.72-.1740009-.2100011-.3869987-.3779994-.639-.504-.2520013-.1260007-.5399984-.189-.864-.189s-.6149987.0629993-.873.189c-.2580013.1260006-.4709992.2939989-.639.504-.1680008.210001-.2969996.4499986-.387.72-.0900005.2700013-.135.5489985-.135.837 0 .2880014.0449995.5669986.135.837.0900004.2700013.2189992.5129989.387.729.1680008.216001.3809987.3869993.639.513.2580013.1260006.5489984.189.873.189zm-4.536-2.268c0-.6240032.1109989-1.2089973.333-1.755.2220011-.5460028.530998-1.022998.927-1.431.396002-.4080021.8729972-.7289989 1.431-.963.5580028-.2340012 1.1729966-.351 1.845-.351s1.2839972.1169988 1.836.351c.5520028.2340011 1.025998.5549979 1.422.963.396002.408002.7049989.8849972.927 1.431.2220011.5460027.333 1.1309968.333 1.755 0 .6240031-.1109989 1.2089972-.333 1.755-.2220011.5460027-.530998 1.0229979-.927 1.431-.396002.408002-.8699972.7319988-1.422.972s-1.1639966.36-1.836.36-1.2869972-.1199988-1.845-.36-1.034998-.563998-1.431-.972c-.396002-.4080021-.7049989-.8849973-.927-1.431-.2220011-.5460028-.333-1.1309969-.333-1.755zm10.602-4.212h2.484l.09 1.062c.2160011-.2880015.5129981-.5639987.891-.828.3780019-.2640014.866997-.396 1.467-.396.2280011 0 .4229992.0119998.585.036.1620008.0240001.3209992.0659997.477.126l-.414 2.286c-.2640013-.0840005-.5759982-.126-.936-.126-.6120031 0-1.1069981.1829981-1.485.549-.3780019.3660018-.567.8849966-.567 1.557v4.176h-2.592zm7.056-3.56400005h2.772v2.32200005h-2.772zm.09 3.56400005h2.592v8.442h-2.592zm12.546 7.524c-.096.0600003-.239999.1589993-.432.297-.192001.1380006-.440998.2729993-.747.405-.306002.1320006-.668998.2489994-1.089.351-.420002.1020005-.899997.153-1.44.153-.720004 0-1.367997-.1109989-1.944-.333-.576003-.2220012-1.064998-.5309981-1.467-.927-.402002-.396002-.707999-.8729973-.918-1.431-.210001-.5580028-.315-1.1729967-.315-1.845 0-.588003.098999-1.1549973.297-1.701.198001-.5460028.482998-1.022998.855-1.431.372002-.4080021.827997-.7349988 1.368-.981.540003-.2460013 1.151997-.369 1.836-.369s1.283997.1199988 1.8.36.950998.5729978 1.305.999c.354002.4260021.620999.935997.801 1.53.180001.5940029.27 1.2449964.27 1.953v.432h-6.012c.012.4560022.212998.8549982.603 1.197.390002.3420017.926997.513 1.611.513.672003 0 1.217998-.0989991 1.638-.297.420002-.198001.725999-.3689993.918-.513zm-2.268-4.194c0-.1800009-.036-.3629991-.108-.549-.072-.186001-.179999-.3569993-.324-.513-.144001-.1560008-.323999-.2849995-.54-.387-.216001-.1020006-.473999-.153-.774-.153-.300002 0-.563999.0509994-.792.153-.228001.1020005-.416999.2309992-.567.387-.150001.1560007-.264.326999-.342.513-.078.1860009-.117.3689991-.117.549zm4.788 2.502c.276001.2520012.638998.4619991 1.089.63.450002.1680008.884998.252 1.305.252.384002 0 .701999-.0479996.954-.144.252001-.0960005.378-.2819987.378-.558 0-.1080006-.027-.2069996-.081-.297-.054-.0900005-.152999-.1739997-.297-.252-.144001-.0780004-.344999-.1589996-.603-.243-.258001-.0840005-.584998-.1799995-.981-.288-.324002-.0840005-.644998-.1949994-.963-.333-.318002-.1380007-.599999-.308999-.846-.513-.246001-.2040011-.443999-.4499986-.594-.738-.150001-.2880015-.225-.6239981-.225-1.008 0-.396002.089999-.7529985.27-1.071.180001-.3180016.428998-.5939989.747-.828.318002-.2340012.695998-.4139994 1.134-.54.438002-.1260007.908997-.189 1.413-.189.720004 0 1.349997.0809991 1.89.243.540003.1620008 1.037998.3989984 1.494.711l-1.098 1.71c-.276001-.1800009-.590998-.3419993-.945-.486-.354002-.1440008-.752998-.216-1.197-.216-.396002 0-.683999.0569994-.864.171-.180001.1140005-.27.266999-.27.459 0 .2760013.185998.4799993.558.612.372002.1320006.875997.2819991 1.512.45.864004.2400012 1.490998.5699979 1.881.99s.585.9779965.585 1.674c0 .4680023-.104999.8699983-.315 1.206-.210001.3360016-.491998.6149988-.846.837-.354002.2220011-.755998.3869994-1.206.495-.450002.1080005-.908998.162-1.377.162-.756004 0-1.469997-.101999-2.142-.306-.672003-.2040011-1.217998-.5159979-1.638-.936z" fill="#949494"/></g></svg>