<?xml version="1.0" encoding="UTF-8"?>
<svg width="58px" height="35px" viewBox="0 0 58 35" version="1.1" xmlns="http://www.w3.org/2000/svg" xmlns:xlink="http://www.w3.org/1999/xlink">
    <!-- Generator: Sketch 50.2 (55047) - http://www.bohemiancoding.com/sketch -->
    <title>logo_stories</title>
    <desc>Created with Sketch.</desc>
    <defs>
        <polygon id="path-1" points="0.82176 0.216 20.96736 0.216 20.96736 20.36124 0.82176 20.36124"></polygon>
        <polygon id="path-3" points="0 41.784 70.1352 41.784 70.1352 1.2 0 1.2"></polygon>
    </defs>
    <g id="Symbols" stroke="none" stroke-width="1" fill="none" fill-rule="evenodd">
        <g id="mod_footer" transform="translate(-153.000000, -244.000000)">
            <g id="logo_stories" transform="translate(146.000000, 242.678594)">
                <g id="Group-9" transform="translate(0.600000, 0.656250)">
                    <path d="M23.33316,20.93664 L23.33316,1.68984 L18.21876,1.68984 L18.21876,6.94224 C18.21876,8.50944 18.24636,11.06664 18.38436,11.91864 C17.97156,11.12064 16.26636,8.56344 15.38676,7.38144 L11.15316,1.68984 L6.45156,1.68984 L6.45156,20.93664 L11.56596,20.93664 L11.56596,15.05304 C11.56596,13.48584 11.53836,10.92864 11.40036,10.07664 C11.89596,10.92864 13.54476,13.40304 14.39676,14.58624 L18.98916,20.93664 L23.33316,20.93664 Z" id="Fill-1" fill="#FFFFFF"></path>
                    <path d="M63.68352,15.02484 C63.68352,11.42364 61.53912,9.93924 56.69832,8.78364 C54.22392,8.20644 53.53752,7.87644 53.53752,7.16124 C53.53752,6.47484 53.92272,5.97924 55.51752,5.97924 C57.46872,5.97924 59.17392,6.63924 60.87912,7.79364 L63.46272,3.61404 C61.42752,2.18484 59.06352,1.38804 55.79232,1.38804 C51.14472,1.38804 48.20352,3.83484 48.20352,7.46364 C48.20352,11.31324 50.43072,12.57804 55.07712,13.65084 C57.66072,14.25564 58.34832,14.69484 58.34832,15.41004 C58.34832,16.31724 57.74472,16.64724 55.84752,16.64724 C54.05952,16.64724 51.61272,15.68604 50.20992,14.72364 L47.62632,18.90204 C49.63392,20.22084 52.63032,21.23964 55.73712,21.23964 C60.35592,21.23964 63.68352,19.42404 63.68352,15.02484" id="Fill-3" fill="#FFFFFF"></path>
                    <g id="Group-7" transform="translate(25.200000, 0.984000)">
                        <mask id="mask-2" fill="white">
                            <use xlink:href="#path-1"></use>
                        </mask>
                        <g id="Clip-6"></g>
                        <path d="M0.82176,10.28844 C0.82176,4.72524 5.33136,0.21564 10.89456,0.21564 C16.45776,0.21564 20.96736,4.72524 20.96736,10.28844 C20.96736,15.85164 16.45776,20.36124 10.89456,20.36124 C5.33136,20.36124 0.82176,15.85164 0.82176,10.28844 M5.95296,10.28844 C5.95296,7.55964 8.16576,5.34684 10.89456,5.34684 C13.62336,5.34684 15.83616,7.55964 15.83616,10.28844 C15.83616,13.01724 13.62336,15.22884 10.89456,15.22884 C8.16576,15.22884 5.95296,13.01724 5.95296,10.28844" id="Fill-5" fill="#E61E14" mask="url(#mask-2)"></path>
                    </g>
                    <mask id="mask-4" fill="white">
                        <use xlink:href="#path-3"></use>
                    </mask>
                    <g id="Clip-8"></g>
                    <path d="M12.0089134,32.3294993 C12.2526741,32.5520635 12.5732677,32.7375308 12.9707036,32.8859069 C13.3681396,33.034283 13.752322,33.10847 14.1232622,33.10847 C14.4624076,33.10847 14.7432582,33.0660774 14.9658223,32.9812911 C15.1883865,32.8965047 15.2996669,32.7322337 15.2996669,32.4884729 C15.2996669,32.3930883 15.2758211,32.3056537 15.2281288,32.2261665 C15.1804364,32.1466793 15.0930018,32.0724923 14.9658223,32.0036034 C14.8386428,31.9347145 14.6611241,31.8631771 14.4332608,31.7889891 C14.2053975,31.714801 13.9165983,31.630016 13.5668546,31.5346313 C13.2807007,31.4604433 12.9972006,31.3624105 12.7163459,31.2405302 C12.4354911,31.1186498 12.186435,30.9676264 11.96917,30.7874554 C11.751905,30.6072844 11.5770357,30.3900227 11.4445571,30.1356636 C11.3120784,29.8813046 11.2458401,29.5845569 11.2458401,29.2454115 C11.2458401,28.8956678 11.3253261,28.5803733 11.4843005,28.2995186 C11.6432749,28.0186638 11.8631862,27.7749067 12.1440409,27.56824 C12.4248957,27.3615733 12.7587369,27.2026013 13.1455746,27.0913192 C13.5324123,26.9800371 13.9483891,26.9243969 14.3935174,26.9243969 C15.0294149,26.9243969 15.585817,26.9959343 16.0627402,27.1390113 C16.5396633,27.2820882 16.9794859,27.4914014 17.382221,27.766957 L16.4124821,29.2772062 C16.1687213,29.1182318 15.8905203,28.975157 15.5778707,28.8479775 C15.265221,28.720798 14.9128331,28.6572092 14.5206962,28.6572092 C14.1709526,28.6572092 13.9165974,28.7075503 13.757623,28.8082341 C13.5986486,28.9089179 13.5191626,29.0440441 13.5191626,29.2136168 C13.5191626,29.4573775 13.6834336,29.6375458 14.0119807,29.754127 C14.3405278,29.8707082 14.7856494,30.0031849 15.347359,30.151561 C16.1104361,30.3635269 16.6641886,30.6549755 17.0086331,31.0259158 C17.3530776,31.396856 17.5252973,31.8896693 17.5252973,32.5043703 C17.5252973,32.9177037 17.4325636,33.2727412 17.2470935,33.5694934 C17.0616234,33.8662456 16.8125672,34.1126522 16.4999176,34.3087206 C16.1872679,34.5047891 15.8322304,34.6505134 15.4347944,34.745898 C15.0373585,34.8412827 14.6319798,34.8889743 14.2186464,34.8889743 C13.5509539,34.8889743 12.920365,34.7988901 12.3268606,34.6187192 C11.7333562,34.4385482 11.2511411,34.1629967 10.8802008,33.7920564 L12.0089134,32.3294993 Z M19.146828,28.9751564 L17.9704234,28.9751564 L17.9704234,27.1787547 L19.146828,27.1787547 L19.146828,24.9213296 L21.4360478,24.9213296 L21.4360478,27.1787547 L23.3596284,27.1787547 L23.3596284,28.9751564 L21.4360478,28.9751564 L21.4360478,31.916168 C21.4360478,32.2765099 21.5075852,32.5547109 21.6506622,32.7507794 C21.7937392,32.9468478 22.0189495,33.0448805 22.3263,33.0448805 C22.5594624,33.0448805 22.760827,33.0051375 22.9303997,32.9256503 C23.0999724,32.8461631 23.2589444,32.7534294 23.4073205,32.6474465 L24.3293674,34.0464142 C23.6086834,34.618722 22.8244215,34.9048716 21.9765581,34.9048716 C21.4466434,34.9048716 21.0015218,34.8280352 20.6411798,34.6743599 C20.2808379,34.5206847 19.9893892,34.308722 19.766825,34.0384655 C19.5442609,33.768209 19.3852889,33.4423164 19.2899042,33.0607779 C19.1945196,32.6792393 19.146828,32.255314 19.146828,31.7889891 L19.146828,28.9751564 Z M28.1765285,32.9018043 C28.4626824,32.9018043 28.7170376,32.8461641 28.9396018,32.734882 C29.1621659,32.6235999 29.3502828,32.4725765 29.503958,32.2818072 C29.6576333,32.091038 29.7715632,31.8764257 29.8457513,31.6379642 C29.9199393,31.3995026 29.9570328,31.1530959 29.9570328,30.8987369 C29.9570328,30.6443779 29.9199393,30.3979713 29.8457513,30.1595097 C29.7715632,29.9210481 29.6576333,29.7090854 29.503958,29.5236153 C29.3502828,29.3381451 29.1621659,29.1897713 28.9396018,29.0784892 C28.7170376,28.9672071 28.4626824,28.9115669 28.1765285,28.9115669 C27.8903746,28.9115669 27.6333698,28.9672071 27.4055065,29.0784892 C27.1776432,29.1897713 26.9895263,29.3381451 26.8411502,29.5236153 C26.6927741,29.7090854 26.5788442,29.9210481 26.499357,30.1595097 C26.4198698,30.3979713 26.3801268,30.6443779 26.3801268,30.8987369 C26.3801268,31.1530959 26.4198698,31.3995026 26.499357,31.6379642 C26.5788442,31.8764257 26.6927741,32.091038 26.8411502,32.2818072 C26.9895263,32.4725765 27.1776432,32.6235999 27.4055065,32.734882 C27.6333698,32.8461641 27.8903746,32.9018043 28.1765285,32.9018043 Z M24.1703938,30.8987369 C24.1703938,30.3476257 24.2684265,29.8309666 24.4644949,29.3487443 C24.6605633,28.866522 24.9334653,28.4452462 25.283209,28.0849042 C25.6329526,27.7245622 26.0542285,27.4410621 26.5470491,27.2343954 C27.0398697,27.0277287 27.5830241,26.9243969 28.1765285,26.9243969 C28.7700329,26.9243969 29.3105377,27.0277287 29.7980592,27.2343954 C30.2855807,27.4410621 30.704207,27.7245622 31.0539506,28.0849042 C31.4036943,28.4452462 31.6765963,28.866522 31.8726647,29.3487443 C32.0687331,29.8309666 32.1667658,30.3476257 32.1667658,30.8987369 C32.1667658,31.4498482 32.0687331,31.9665072 31.8726647,32.4487295 C31.6765963,32.9309518 31.4036943,33.3522277 31.0539506,33.7125696 C30.704207,34.0729116 30.2855807,34.3590612 29.7980592,34.5710271 C29.3105377,34.7829929 28.7700329,34.8889743 28.1765285,34.8889743 C27.5830241,34.8889743 27.0398697,34.7829929 26.5470491,34.5710271 C26.0542285,34.3590612 25.6329526,34.0729116 25.283209,33.7125696 C24.9334653,33.3522277 24.6605633,32.9309518 24.4644949,32.4487295 C24.2684265,31.9665072 24.1703938,31.4498482 24.1703938,30.8987369 Z M33.5339388,27.1787547 L35.7277745,27.1787547 L35.8072613,28.1166989 C35.9980306,27.8623399 36.2603344,27.6185828 36.5941806,27.3854204 C36.9280268,27.1522579 37.3599008,27.0356784 37.8898154,27.0356784 C38.091183,27.0356784 38.2634027,27.0462766 38.4064796,27.0674732 C38.5495566,27.0886697 38.6899819,27.1257632 38.8277597,27.1787547 L38.4621204,29.1977194 C38.228958,29.1235313 37.9534065,29.0864379 37.6354577,29.0864379 C37.0949447,29.0864379 36.6577717,29.2480594 36.3239255,29.5713074 C35.9900793,29.8945553 35.8231586,30.3529246 35.8231586,30.946429 L35.8231586,34.6346165 L33.5339388,34.6346165 L33.5339388,27.1787547 Z M39.7657039,24.0310774 L42.2138974,24.0310774 L42.2138974,26.0818368 L39.7657039,26.0818368 L39.7657039,24.0310774 Z M39.8451907,27.1787547 L42.1344106,27.1787547 L42.1344106,34.6346165 L39.8451907,34.6346165 L39.8451907,27.1787547 Z M50.9256506,33.8238512 C50.8408643,33.8768426 50.7136867,33.9642772 50.544114,34.0861576 C50.3745413,34.208038 50.15463,34.327267 49.8843736,34.4438482 C49.6141171,34.5604294 49.2935235,34.6637612 48.9225833,34.7538467 C48.551643,34.8439322 48.1277177,34.8889743 47.6507945,34.8889743 C47.0148969,34.8889743 46.4425977,34.7909415 45.9338796,34.5948731 C45.4251615,34.3988047 44.9932876,34.1259027 44.6382448,33.7761591 C44.2832019,33.4264154 44.0129495,33.0051396 43.8274794,32.512319 C43.6420093,32.0194983 43.5492756,31.476344 43.5492756,30.8828396 C43.5492756,30.3635232 43.6367102,29.8627614 43.811582,29.380539 C43.9864539,28.8983167 44.2381596,28.4770409 44.5667066,28.1166989 C44.8952537,27.756357 45.2979828,27.4675578 45.774906,27.2502928 C46.2518292,27.0330278 46.792334,26.9243969 47.3964367,26.9243969 C48.0005394,26.9243969 48.5304461,27.0303783 48.9861727,27.2423441 C49.4418993,27.45431 49.8260817,27.7484082 50.1387313,28.1246476 C50.451381,28.500887 50.6871894,28.9513077 50.8461638,29.4759232 C51.0051382,30.0005387 51.0846242,30.5754875 51.0846242,31.2007868 L51.0846242,31.5823234 L45.774906,31.5823234 C45.7855043,31.9850585 45.963023,32.3374465 46.3074676,32.6394978 C46.6519121,32.9415492 47.1261786,33.0925726 47.7302813,33.0925726 C48.3237857,33.0925726 48.8060008,33.005138 49.176941,32.8302662 C49.5478813,32.6553943 49.8181337,32.5043709 49.9877064,32.3771914 L50.9256506,33.8238512 Z M48.9225833,30.1197663 C48.9225833,29.9607919 48.8907889,29.7991703 48.8271991,29.6348968 C48.7636094,29.4706233 48.6682262,29.3195998 48.5410466,29.181822 C48.4138671,29.0440442 48.2548951,28.9301143 48.0641258,28.8400288 C47.8733566,28.7499433 47.6454967,28.7049012 47.3805394,28.7049012 C47.115582,28.7049012 46.8824231,28.7499433 46.6810555,28.8400288 C46.479688,28.9301143 46.3127673,29.0440442 46.1802887,29.181822 C46.04781,29.3195998 45.9471277,29.4706233 45.8782388,29.6348968 C45.8093499,29.7991703 45.774906,29.9607919 45.774906,30.1197663 L48.9225833,30.1197663 Z M53.151281,32.3294993 C53.3950418,32.5520635 53.7156353,32.7375308 54.1130713,32.8859069 C54.5105073,33.034283 54.8946897,33.10847 55.2656299,33.10847 C55.6047753,33.10847 55.8856258,33.0660774 56.10819,32.9812911 C56.3307542,32.8965047 56.4420346,32.7322337 56.4420346,32.4884729 C56.4420346,32.3930883 56.4181888,32.3056537 56.3704964,32.2261665 C56.3228041,32.1466793 56.2353695,32.0724923 56.10819,32.0036034 C55.9810105,31.9347145 55.8034917,31.8631771 55.5756284,31.7889891 C55.3477651,31.714801 55.058966,31.630016 54.7092223,31.5346313 C54.4230684,31.4604433 54.1395683,31.3624105 53.8587136,31.2405302 C53.5778588,31.1186498 53.3288026,30.9676264 53.1115376,30.7874554 C52.8942726,30.6072844 52.7194034,30.3900227 52.5869248,30.1356636 C52.4544461,29.8813046 52.3882078,29.5845569 52.3882078,29.2454115 C52.3882078,28.8956678 52.4676938,28.5803733 52.6266682,28.2995186 C52.7856426,28.0186638 53.0055538,27.7749067 53.2864086,27.56824 C53.5672634,27.3615733 53.9011046,27.2026013 54.2879423,27.0913192 C54.67478,26.9800371 55.0907567,26.9243969 55.535885,26.9243969 C56.1717826,26.9243969 56.7281847,26.9959343 57.2051078,27.1390113 C57.682031,27.2820882 58.1218536,27.4914014 58.5245887,27.766957 L57.5548498,29.2772062 C57.311089,29.1182318 57.032888,28.975157 56.7202384,28.8479775 C56.4075887,28.720798 56.0552008,28.6572092 55.6630639,28.6572092 C55.3133203,28.6572092 55.058965,28.7075503 54.8999906,28.8082341 C54.7410162,28.9089179 54.6615302,29.0440441 54.6615302,29.2136168 C54.6615302,29.4573775 54.8258013,29.6375458 55.1543484,29.754127 C55.4828955,29.8707082 55.9280171,30.0031849 56.4897266,30.151561 C57.2528037,30.3635269 57.8065562,30.6549755 58.1510008,31.0259158 C58.4954453,31.396856 58.667665,31.8896693 58.667665,32.5043703 C58.667665,32.9177037 58.5749313,33.2727412 58.3894612,33.5694934 C58.203991,33.8662456 57.9549349,34.1126522 57.6422852,34.3087206 C57.3296356,34.5047891 56.9745981,34.6505134 56.5771621,34.745898 C56.1797261,34.8412827 55.7743475,34.8889743 55.3610141,34.8889743 C54.6933216,34.8889743 54.0627326,34.7988901 53.4692282,34.6187192 C52.8757238,34.4385482 52.3935087,34.1629967 52.0225685,33.7920564 L53.151281,32.3294993 Z" id="stories" fill="#FFFFFF" mask="url(#mask-4)"></path>
                </g>
            </g>
        </g>
    </g>
</svg>